<?xml version="1.0" encoding="UTF-8" standalone="no"?>
<!-- Generator: Adobe Illustrator 19.0.0, SVG Export Plug-In . SVG Version: 6.00 Build 0)  -->

<svg
   xmlns:dc="http://purl.org/dc/elements/1.1/"
   xmlns:cc="http://creativecommons.org/ns#"
   xmlns:rdf="http://www.w3.org/1999/02/22-rdf-syntax-ns#"
   xmlns:svg="http://www.w3.org/2000/svg"
   xmlns="http://www.w3.org/2000/svg"
   xmlns:sodipodi="http://sodipodi.sourceforge.net/DTD/sodipodi-0.dtd"
   xmlns:inkscape="http://www.inkscape.org/namespaces/inkscape"
   version="1.1"
   id="Capa_1"
   x="0px"
   y="0px"
   viewBox="0 0 384.97 384.97"
   style="enable-background:new 0 0 384.97 384.97;"
   xml:space="preserve"
   sodipodi:docname="previous.svg"><metadata
   id="metadata4626"><rdf:RDF><cc:Work
       rdf:about=""><dc:format>image/svg+xml</dc:format><dc:type
         rdf:resource="http://purl.org/dc/dcmitype/StillImage" /></cc:Work></rdf:RDF></metadata><defs
   id="defs4624" /><sodipodi:namedview
   pagecolor="#ffffff"
   bordercolor="#666666"
   borderopacity="1"
   objecttolerance="10"
   gridtolerance="10"
   guidetolerance="10"
   inkscape:pageopacity="0"
   inkscape:pageshadow="2"
   inkscape:window-width="640"
   inkscape:window-height="480"
   id="namedview4622"
   showgrid="false" />
<g
   id="g4589">
	<g
   id="Arrow_Drop_Left_Square">
		<path
   d="M360.909,0H24.061C10.767,0,0,10.767,0,24.061v336.848c0,13.293,10.767,24.061,24.061,24.061h336.848    c13.281,0,24.061-10.767,24.061-24.061V24.061C384.97,10.767,374.191,0,360.909,0z M360.909,360.909H24.061V24.061h336.848    V360.909z"
   id="path4573" />
		<path
   id="Arrow_Drop_Down_3_"
   d="M240.666,324.818c6.785,0,12.151-5.883,11.97-12.56V72.338    c0.289-10.671-12.872-16.602-20.476-8.926l-119.1,120.291c-4.692,4.74-4.523,12.403,0,17.191l119.004,120.195    C234.242,323.363,237.274,324.818,240.666,324.818z M138.589,192.292l90.119-91.021v182.043L138.589,192.292z" />
	</g>
	<g
   id="g4577">
	</g>
	<g
   id="g4579">
	</g>
	<g
   id="g4581">
	</g>
	<g
   id="g4583">
	</g>
	<g
   id="g4585">
	</g>
	<g
   id="g4587">
	</g>
</g>
<g
   id="g4591">
</g>
<g
   id="g4593">
</g>
<g
   id="g4595">
</g>
<g
   id="g4597">
</g>
<g
   id="g4599">
</g>
<g
   id="g4601">
</g>
<g
   id="g4603">
</g>
<g
   id="g4605">
</g>
<g
   id="g4607">
</g>
<g
   id="g4609">
</g>
<g
   id="g4611">
</g>
<g
   id="g4613">
</g>
<g
   id="g4615">
</g>
<g
   id="g4617">
</g>
<g
   id="g4619">
</g>
<path
   style="fill:#00d400;stroke:none;stroke-width:0.71942449"
   d="M 17.58287,383.67151 C 10.28286,381.39009 5.6242084,377.31314 2.3340385,370.32673 L 0.47061212,366.36989 V 192.9886 c 0,-165.827316 0.0570617,-173.544922 1.30969908,-177.136865 C 3.4325544,11.113921 8.5264963,5.3819156 13.342844,2.8408894 L 17.017375,0.9022668 191.25552,0.71663126 C 365.13649,0.53137629 365.50171,0.53400624 369.41889,1.9996147 c 5.51733,2.0642963 10.01884,6.2840492 12.85982,12.0548913 l 2.36456,4.803117 V 192.25404 c 0,161.9001 -0.0815,173.59967 -1.22987,176.46188 -1.94962,4.85945 -5.28031,9.17404 -8.96718,11.61612 -7.11497,4.71277 6.53606,4.38797 -182.19971,4.33505 C 52.405097,384.62788 20.052963,384.44347 17.58287,383.67151 Z M 361.26198,192.26917 V 23.564137 H 192.55694 23.851907 V 192.26917 360.97421 H 192.55694 361.26198 Z"
   id="path4628"
   inkscape:connector-curvature="0" /><path
   style="opacity:0;fill:#00d400;stroke:none;stroke-width:0.72055739;stroke-miterlimit:4;stroke-dasharray:none;stroke-opacity:0.95979901"
   d="m 235.3627,323.23812 c -2.45909,-1.35063 -121.9352,-122.05889 -123.73536,-125.01144 -1.87684,-3.07831 -1.9256,-8.75687 -0.10089,-11.74911 2.41837,-3.96574 122.42578,-124.653074 124.75991,-125.466757 6.99672,-2.43907 14.94125,2.271004 15.96541,9.465413 0.24177,1.698351 0.34459,57.661964 0.22849,124.363584 l -0.21109,121.27567 -1.91421,2.89246 c -1.05282,1.59087 -3.0442,3.42868 -4.42528,4.08405 -3.02127,1.43369 -8.09497,1.50385 -10.56698,0.14613 z M 228.88788,192.0997 v -91.17667 l -9.40269,9.34213 c -5.17148,5.13818 -25.54562,25.70997 -45.27587,45.7151 l -35.87317,36.37295 44.97612,45.46158 c 24.73686,25.00387 45.111,45.46158 45.27586,45.46158 0.16486,0 0.29975,-41.02951 0.29975,-91.17667 z"
   id="path4630"
   inkscape:connector-curvature="0" /></svg>